<svg xmlns="http://www.w3.org/2000/svg" width="23" height="21" viewBox="0 0 23 21" fill="none">
  <path d="M12.7206 2.40551L12.7203 2.40576L11.8739 3.35732L11.5003 3.77727L11.1267 3.35732L10.2802 2.40576L10.2797 2.40514C8.28247 0.152585 5.09737 -0.169649 2.9764 1.80201C0.482212 4.1245 0.344816 8.32357 2.58455 10.8495L10.8987 20.2148C10.8987 20.2149 10.8988 20.2149 10.8988 20.2149C11.237 20.5955 11.7593 20.5955 12.0975 20.2149C12.0975 20.2149 12.0975 20.2149 12.0976 20.2148L20.4119 10.8493L20.412 10.8492C22.6556 8.32335 22.5183 4.12461 20.0243 1.80213L12.7206 2.40551ZM12.7206 2.40551C14.7223 0.15233 17.9032 -0.169452 20.024 1.80187L12.7206 2.40551Z" stroke="#101010"/>
  <defs>
    <linearGradient id="svghover" x1="11.5" y1="-5.45973" x2="3.93419" y2="27.9927" gradientUnits="userSpaceOnUse">
    <stop stop-color="#9356DC"/>
    <stop offset="1" stop-color="#FF79DA"/>
    </linearGradient>
  </defs>
</svg>
